<svg id="Capa_1" enable-background="new 0 0 512 512" height="512" viewBox="0 0 512 512" width="512" xmlns="http://www.w3.org/2000/svg"><g><path d="m344.83 438.86v73.14h-73.14v-36.57h-38.1l-71.61-73.14 94.02-14 52.26 14z" fill="#fe4a4a"/><path d="m344.83 438.86v73.14h-73.14v-36.57h-15.69v-87.14l52.26 14z" fill="#e80b6a"/><path d="m459.74 329.14-41.76 36.57-36.57-36.57h-73.15v73.15h-146.28l-109.72-36.58v-73.14h36.57v-36.57l167.17-14 161.98 14z" fill="#00b3ff"/><path d="m459.74 329.14-41.76 36.57-36.57-36.57h-73.15v73.15h-52.26v-160.29l161.98 14z" fill="#0174fa"/><path d="m417.98 182.86v73.14h-329.15v-109.71l73.15-73.15v-36.57l73.14-36.57 36.57 36.57-15.69 33.19-18.89 39.95v36.58l18.89 19.98 15.69 16.59z" fill="#fff04a"/><g fill="#ffda45"><path d="m271.69 36.57-15.69 33.19v-48.88z"/><path d="m417.98 182.86v73.14h-161.98v-89.73l15.69 16.59z"/></g></g></svg>