<svg enable-background="new 0 0 100 100" viewBox="0 0 100 100" xmlns="http://www.w3.org/2000/svg"><g id="Layer_1"/><g id="home-2"><path d="m79.167 87.5h-20.834c-2.303 0-4.167-1.864-4.167-4.167v-20.833h-8.333v20.833c0 2.303-1.866 4.167-4.167 4.167h-20.833c-4.596 0-8.333-3.739-8.333-8.333v-27.442c0-2.226.867-4.317 2.441-5.892l32.113-32.113c1.628-1.628 4.264-1.628 5.892 0l32.113 32.113c1.575 1.575 2.441 3.666 2.441 5.892v27.441c0 4.595-3.739 8.334-8.333 8.334zm-16.667-8.333h16.667v-27.442l-29.167-29.166-29.167 29.166v27.441h16.667v-16.666c0-4.594 3.737-8.333 8.333-8.333h8.333c4.594 0 8.333 3.739 8.333 8.333v16.667z"/></g></svg>